<svg xmlns="http://www.w3.org/2000/svg" version="1.1" xmlns:xlink="http://www.w3.org/1999/xlink" xmlns:svgjs="http://svgjs.dev/svgjs" viewBox="0 0 10.152241349934409 6.047701724278497"><g transform="matrix(0.8175114147349228,0,0,0.8175114147349228,1.4781523464939488,4.020173508230459)"><g transform="matrix(1,0,0,1,0,0)" clip-path="url(#SvgjsClipPath85643)"><g clip-path="url(#SvgjsClipPath856418e639d25-181a-4eef-98c4-99a71843fd20)"><path d=" M 7.778521691442221 -2.103546021016876 L 4.683914011753966 -2.103546021016876 L 4.683914011753966 -2.2405477089814525 L 7.778521691442221 -2.2405477089814525 Z M 7.778521691442221 -1.777346484217139 L 4.683914011753966 -1.777346484217139 L 4.683914011753966 -1.6402389216869027 L 7.778521691442221 -1.6402389216869027 Z M 7.778521691442221 -2.009000033882126 L 4.683914011753966 -2.009000033882126 L 4.683914011753966 -1.8718924713518892 L 7.778521691442221 -1.8718924713518892 Z M 7.778521691442221 -1.5456929345521515 L 4.683914011753966 -1.5456929345521515 L 4.683914011753966 -1.4085853720219141 L 7.778521691442221 -1.4085853720219141 Z M 7.778521691442221 -1.3141452594528253 L 4.683914011753966 -1.3141452594528253 L 4.683914011753966 -1.177037696922588 L 7.778521691442221 -1.177037696922588 Z M 7.778521691442221 -1.082491709787838 L 4.683914011753966 -1.082491709787838 L 4.683914011753966 -0.945595896388923 L 7.778521691442221 -0.945595896388923 Z M 7.778521691442221 -0.8503087872945505 L 4.683914011753966 -0.8503087872945505 L 4.683914011753966 -0.7137305975926154 L 7.778521691442221 -0.7137305975926154 Z M 7.778521691442221 -0.6186552376295626 L 4.683914011753966 -0.6186552376295626 L 4.683914011753966 -0.4816535496649861 L 7.778521691442221 -0.4816535496649861 Z M 7.778521691442221 -0.3871075625302369 L 4.683914011753966 -0.3871075625302369 L 4.683914011753966 -0.24999999999999956 L 7.778521691442221 -0.24999999999999956 Z" fill="#a5b2ba" transform="matrix(1,0,0,1,0,0)" fill-rule="nonzero"></path></g><g clip-path="url(#SvgjsClipPath856418e639d25-181a-4eef-98c4-99a71843fd20)"><path d=" M 6.19972016831412 -3.5675795149690868 L 2.460548132885263 -3.5675795149690868 L 0.5904856796253626 -2.5423960956792944 L 0.5896386831000793 -2.5231269247290986 L 0.5896386831000793 -0.2505293728283018 L 4.536642490920331 -0.2505293728283018 L 4.536642490920331 -2.2964494796501516 L 4.690689983956234 -2.3811491321784826 L 7.773545586856182 -2.3811491321784826 L 7.9274872053264245 -2.2964494796501516 L 7.9274872053264245 -0.2505293728283018 L 8.21260741064992 -0.2505293728283018 L 8.21260741064992 -2.4653194118785127 Z M 5.291739893210407 -2.6118498107525263 L 5.237743864723595 -2.640224194349517 L 5.183747836236783 -2.6118498107525263 L 5.194335292802824 -2.6719865640476415 L 5.1506090971850735 -2.714336390311807 L 5.21095759961151 -2.723018104695961 L 5.237955613854915 -2.7777552551423956 L 5.26495362809832 -2.723018104695961 L 5.325302130524757 -2.714336390311807 L 5.281575934907006 -2.6719865640476415 Z M 5.718626141953197 -2.6118498107525263 L 5.6326559946369406 -2.657164124855183 L 5.546579972755025 -2.6118498107525263 L 5.562990530432389 -2.707666292675201 L 5.493325066227835 -2.775531889263527 L 5.589565046413153 -2.789613206496362 L 5.6326559946369406 -2.8767479740348834 L 5.675641068295068 -2.789613206496362 L 5.7718810484803855 -2.775531889263527 L 5.702215584275834 -2.707666292675201 Z M 4.33992754792328 -2.5453605835177857 L 0.980104081255688 -2.5453605835177857 L 2.496439610644144 -3.37668767308336 L 5.856263077311738 -3.37668767308336 Z M 6.326240274278316 -2.575534834731004 L 6.190403206536003 -2.646682542854802 L 6.054989637056334 -2.5755348347310036 L 6.080823031077476 -2.7263002162314343 L 5.971348730184608 -2.8331276529827916 L 6.122749359078999 -2.855149562640158 L 6.190403206536003 -2.9927864979986967 L 6.258162928558669 -2.855149562640158 L 6.409563557453061 -2.8331276529827916 L 6.299983381994531 -2.7263002162314343 Z M 6.834438189448306 -2.6118498107525263 L 6.748362167566389 -2.657164124855184 L 6.6622861456844715 -2.6118498107525263 L 6.678802577927496 -2.7076662926752015 L 6.609137113722943 -2.7755318892635277 L 6.70537709390826 -2.7896132064963624 L 6.7483621675663885 -2.876747974034884 L 6.791453115790178 -2.7896132064963624 L 6.887693095975495 -2.7755318892635277 L 6.818027631770942 -2.7076662926752015 Z M 7.1971644514008855 -2.6118498107525263 L 7.143274297479734 -2.6402241943495177 L 7.089278268992923 -2.6118498107525263 L 7.099865725558965 -2.6719865640476423 L 7.056245404506874 -2.714336390311808 L 7.116593906933311 -2.723018104695962 L 7.143591921176715 -2.777755255142396 L 7.170484060854461 -2.723018104695962 L 7.230832563280897 -2.714336390311808 L 7.187212242228806 -2.6719865640476423 Z" fill="#004a80" transform="matrix(1,0,0,1,0,0)" fill-rule="nonzero"></path></g></g><g><path d=" M 0.784423828125 0 L 1.206298828125 0 L 1.206298828125 0.201416015625 L 1.1162109375 0.201416015625 L 1.1162109375 1.1103515625 L 0.873046875 1.1103515625 L 0.410888671875 0.392578125 L 0.410888671875 0.90966796875 L 0.50390625 0.90966796875 L 0.50390625 1.1103515625 L 0.082763671875 1.1103515625 L 0.082763671875 0.90966796875 L 0.17431640625 0.90966796875 L 0.17431640625 0.201416015625 L 0.084228515625 0.201416015625 L 0.084228515625 0 L 0.419677734375 0 L 0.87890625 0.727294921875 L 0.87890625 0.201416015625 L 0.784423828125 0.201416015625 L 0.784423828125 0 M 1.773193359375 0.3515625 L 2.132080078125 0.3515625 L 2.132080078125 0.90966796875 L 2.2236328125 0.90966796875 L 2.2236328125 1.1103515625 L 1.902099609375 1.1103515625 L 1.902099609375 1.0458984375 Q 1.86328125 1.0810546875 1.811279296875 1.10009765625 Q 1.75927734375 1.119140625 1.691162109375 1.119140625 Q 1.628173828125 1.119140625 1.572509765625 1.099365234375 Q 1.516845703125 1.07958984375 1.4754638671875 1.0396728515625 Q 1.43408203125 0.999755859375 1.4102783203125 0.939697265625 Q 1.386474609375 0.879638671875 1.386474609375 0.79833984375 L 1.386474609375 0.55224609375 L 1.28759765625 0.55224609375 L 1.28759765625 0.3515625 L 1.623046875 0.3515625 L 1.623046875 0.79833984375 Q 1.623046875 0.87451171875 1.661865234375 0.9122314453125 Q 1.70068359375 0.949951171875 1.762939453125 0.949951171875 Q 1.806884765625 0.949951171875 1.8427734375 0.9228515625 Q 1.878662109375 0.895751953125 1.894775390625 0.849609375 L 1.894775390625 0.55224609375 L 1.773193359375 0.55224609375 L 1.773193359375 0.3515625 M 2.33642578125 0.3515625 L 2.68359375 0.3515625 L 2.68359375 0.41748046875 Q 2.73046875 0.380126953125 2.7890625 0.358154296875 Q 2.84765625 0.336181640625 2.909912109375 0.336181640625 Q 2.996337890625 0.336181640625 3.0582275390625 0.3665771484375 Q 3.1201171875 0.39697265625 3.1552734375 0.459228515625 Q 3.179443359375 0.43212890625 3.2098388671875 0.4097900390625 Q 3.240234375 0.387451171875 3.274658203125 0.3709716796875 Q 3.30908203125 0.3544921875 3.3468017578125 0.3453369140625 Q 3.384521484375 0.336181640625 3.424072265625 0.336181640625 Q 3.563232421875 0.336181640625 3.637939453125 0.4130859375 Q 3.712646484375 0.489990234375 3.712646484375 0.637939453125 L 3.712646484375 0.90966796875 L 3.8203125 0.90966796875 L 3.8203125 1.1103515625 L 3.473876953125 1.1103515625 L 3.473876953125 0.67529296875 Q 3.473876953125 0.61083984375 3.4405517578125 0.57421875 Q 3.4072265625 0.53759765625 3.347900390625 0.53759765625 Q 3.306884765625 0.53759765625 3.2706298828125 0.5570068359375 Q 3.234375 0.576416015625 3.198486328125 0.6240234375 Q 3.19921875 0.632080078125 3.19921875 0.6405029296875 Q 3.19921875 0.64892578125 3.19921875 0.65771484375 L 3.19921875 0.90966796875 L 3.30908203125 0.90966796875 L 3.30908203125 1.1103515625 L 2.962646484375 1.1103515625 L 2.962646484375 0.673828125 Q 2.962646484375 0.64306640625 2.953125 0.6181640625 Q 2.943603515625 0.59326171875 2.9267578125 0.57568359375 Q 2.909912109375 0.55810546875 2.8868408203125 0.5482177734375 Q 2.86376953125 0.538330078125 2.8359375 0.53759765625 Q 2.79931640625 0.536865234375 2.7601318359375 0.5537109375 Q 2.720947265625 0.570556640625 2.68505859375 0.615966796875 L 2.68505859375 0.90966796875 L 2.806640625 0.90966796875 L 2.806640625 1.1103515625 L 2.3349609375 1.1103515625 L 2.3349609375 0.90966796875 L 2.44775390625 0.90966796875 L 2.44775390625 0.55224609375 L 2.33642578125 0.55224609375 L 2.33642578125 0.3515625 M 4.380615234375 1.0693359375 Q 4.35498046875 1.08544921875 4.333740234375 1.0968017578125 Q 4.3125 1.108154296875 4.291259765625 1.1151123046875 Q 4.27001953125 1.1220703125 4.247314453125 1.1253662109375 Q 4.224609375 1.128662109375 4.197509765625 1.128662109375 Q 4.12939453125 1.128662109375 4.0755615234375 1.1099853515625 Q 4.021728515625 1.09130859375 3.9847412109375 1.0587158203125 Q 3.94775390625 1.026123046875 3.927978515625 0.9818115234375 Q 3.908203125 0.9375 3.908203125 0.885498046875 Q 3.908203125 0.832763671875 3.9283447265625 0.7880859375 Q 3.948486328125 0.743408203125 3.986572265625 0.7115478515625 Q 4.024658203125 0.6796875 4.0799560546875 0.6617431640625 Q 4.13525390625 0.643798828125 4.206298828125 0.643798828125 Q 4.25830078125 0.643798828125 4.3011474609375 0.6492919921875 Q 4.343994140625 0.65478515625 4.380615234375 0.662841796875 L 4.380615234375 0.639404296875 Q 4.380615234375 0.61083984375 4.36962890625 0.5899658203125 Q 4.358642578125 0.569091796875 4.3388671875 0.5555419921875 Q 4.319091796875 0.5419921875 4.291259765625 0.5357666015625 Q 4.263427734375 0.529541015625 4.23046875 0.529541015625 Q 4.16162109375 0.529541015625 4.1092529296875 0.5430908203125 Q 4.056884765625 0.556640625 4.008544921875 0.582275390625 L 3.938232421875 0.440185546875 Q 4.012939453125 0.388916015625 4.0946044921875 0.36181640625 Q 4.17626953125 0.334716796875 4.267822265625 0.334716796875 Q 4.3388671875 0.334716796875 4.3992919921875 0.3504638671875 Q 4.459716796875 0.3662109375 4.5029296875 0.4017333984375 Q 4.546142578125 0.437255859375 4.5706787109375 0.494384765625 Q 4.59521484375 0.551513671875 4.59521484375 0.633544921875 L 4.59521484375 0.90966796875 L 4.697021484375 0.90966796875 L 4.697021484375 1.1103515625 L 4.380615234375 1.1103515625 L 4.380615234375 1.0693359375 M 4.213623046875 0.955810546875 Q 4.265625 0.955810546875 4.30810546875 0.93896484375 Q 4.3505859375 0.922119140625 4.380615234375 0.89794921875 L 4.380615234375 0.80126953125 L 4.204833984375 0.80126953125 Q 4.18798828125 0.80126953125 4.171875 0.806396484375 Q 4.15576171875 0.8115234375 4.1429443359375 0.821044921875 Q 4.130126953125 0.83056640625 4.1224365234375 0.844482421875 Q 4.11474609375 0.8583984375 4.11474609375 0.876708984375 Q 4.11474609375 0.910400390625 4.1392822265625 0.93310546875 Q 4.163818359375 0.955810546875 4.213623046875 0.955810546875 M 4.822998046875 0.3515625 L 5.21923828125 0.3515625 L 5.21923828125 0.55224609375 L 5.133544921875 0.55224609375 L 5.214111328125 0.822509765625 L 5.3701171875 0.3515625 L 5.584716796875 0.3515625 L 5.7421875 0.8466796875 L 5.8388671875 0.55224609375 L 5.757568359375 0.55224609375 L 5.757568359375 0.3515625 L 6.15380859375 0.3515625 L 6.15380859375 0.55224609375 L 6.052001953125 0.55224609375 L 5.84912109375 1.11328125 L 5.630126953125 1.11328125 L 5.47119140625 0.629150390625 L 5.309326171875 1.11328125 L 5.09619140625 1.11328125 L 4.907958984375 0.55224609375 L 4.822998046875 0.55224609375 L 4.822998046875 0.3515625 M 6.708251953125 1.0693359375 Q 6.6826171875 1.08544921875 6.661376953125 1.0968017578125 Q 6.64013671875 1.108154296875 6.618896484375 1.1151123046875 Q 6.59765625 1.1220703125 6.574951171875 1.1253662109375 Q 6.55224609375 1.128662109375 6.525146484375 1.128662109375 Q 6.45703125 1.128662109375 6.4031982421875 1.1099853515625 Q 6.349365234375 1.09130859375 6.3123779296875 1.0587158203125 Q 6.275390625 1.026123046875 6.255615234375 0.9818115234375 Q 6.23583984375 0.9375 6.23583984375 0.885498046875 Q 6.23583984375 0.832763671875 6.2559814453125 0.7880859375 Q 6.276123046875 0.743408203125 6.314208984375 0.7115478515625 Q 6.352294921875 0.6796875 6.4075927734375 0.6617431640625 Q 6.462890625 0.643798828125 6.533935546875 0.643798828125 Q 6.5859375 0.643798828125 6.6287841796875 0.6492919921875 Q 6.671630859375 0.65478515625 6.708251953125 0.662841796875 L 6.708251953125 0.639404296875 Q 6.708251953125 0.61083984375 6.697265625 0.5899658203125 Q 6.686279296875 0.569091796875 6.66650390625 0.5555419921875 Q 6.646728515625 0.5419921875 6.618896484375 0.5357666015625 Q 6.591064453125 0.529541015625 6.55810546875 0.529541015625 Q 6.4892578125 0.529541015625 6.4368896484375 0.5430908203125 Q 6.384521484375 0.556640625 6.336181640625 0.582275390625 L 6.265869140625 0.440185546875 Q 6.340576171875 0.388916015625 6.4222412109375 0.36181640625 Q 6.50390625 0.334716796875 6.595458984375 0.334716796875 Q 6.66650390625 0.334716796875 6.7269287109375 0.3504638671875 Q 6.787353515625 0.3662109375 6.83056640625 0.4017333984375 Q 6.873779296875 0.437255859375 6.8983154296875 0.494384765625 Q 6.9228515625 0.551513671875 6.9228515625 0.633544921875 L 6.9228515625 0.90966796875 L 7.024658203125 0.90966796875 L 7.024658203125 1.1103515625 L 6.708251953125 1.1103515625 L 6.708251953125 1.0693359375 M 6.541259765625 0.955810546875 Q 6.59326171875 0.955810546875 6.6357421875 0.93896484375 Q 6.67822265625 0.922119140625 6.708251953125 0.89794921875 L 6.708251953125 0.80126953125 L 6.532470703125 0.80126953125 Q 6.515625 0.80126953125 6.49951171875 0.806396484375 Q 6.4833984375 0.8115234375 6.4705810546875 0.821044921875 Q 6.457763671875 0.83056640625 6.4500732421875 0.844482421875 Q 6.4423828125 0.8583984375 6.4423828125 0.876708984375 Q 6.4423828125 0.910400390625 6.4669189453125 0.93310546875 Q 6.491455078125 0.955810546875 6.541259765625 0.955810546875 M 7.86767578125 0.627685546875 L 7.661865234375 0.627685546875 L 7.661865234375 0.54931640625 Q 7.6318359375 0.54931640625 7.60693359375 0.5533447265625 Q 7.58203125 0.557373046875 7.5633544921875 0.56689453125 Q 7.544677734375 0.576416015625 7.5318603515625 0.59326171875 Q 7.51904296875 0.610107421875 7.513916015625 0.635009765625 L 7.513916015625 0.90966796875 L 7.66845703125 0.90966796875 L 7.66845703125 1.1103515625 L 7.17333984375 1.1103515625 L 7.17333984375 0.90966796875 L 7.286865234375 0.90966796875 L 7.286865234375 0.55224609375 L 7.1748046875 0.55224609375 L 7.1748046875 0.3515625 L 7.512451171875 0.3515625 L 7.512451171875 0.405029296875 Q 7.544677734375 0.37939453125 7.5849609375 0.365478515625 Q 7.625244140625 0.3515625 7.6728515625 0.3515625 Q 7.72119140625 0.3515625 7.7724609375 0.352294921875 Q 7.82373046875 0.35302734375 7.86767578125 0.35302734375 L 7.86767578125 0.627685546875 M 8.189208984375 0.778564453125 L 8.19140625 0.80126953125 Q 8.199462890625 0.834228515625 8.2188720703125 0.859130859375 Q 8.23828125 0.884033203125 8.2646484375 0.90087890625 Q 8.291015625 0.917724609375 8.3232421875 0.9261474609375 Q 8.35546875 0.9345703125 8.388427734375 0.9345703125 Q 8.42138671875 0.9345703125 8.4510498046875 0.9305419921875 Q 8.480712890625 0.926513671875 8.508544921875 0.9195556640625 Q 8.536376953125 0.91259765625 8.562744140625 0.9034423828125 Q 8.589111328125 0.894287109375 8.6162109375 0.884033203125 L 8.69677734375 1.0341796875 Q 8.655029296875 1.059814453125 8.6202392578125 1.0777587890625 Q 8.58544921875 1.095703125 8.55029296875 1.107421875 Q 8.51513671875 1.119140625 8.4755859375 1.1246337890625 Q 8.43603515625 1.130126953125 8.38330078125 1.130126953125 Q 8.284423828125 1.130126953125 8.20751953125 1.0975341796875 Q 8.130615234375 1.06494140625 8.0782470703125 1.00927734375 Q 8.02587890625 0.95361328125 7.9984130859375 0.87890625 Q 7.970947265625 0.80419921875 7.970947265625 0.720703125 Q 7.970947265625 0.63720703125 7.9998779296875 0.56396484375 Q 8.02880859375 0.49072265625 8.08154296875 0.4361572265625 Q 8.13427734375 0.381591796875 8.20751953125 0.35009765625 Q 8.28076171875 0.318603515625 8.3701171875 0.318603515625 Q 8.45947265625 0.318603515625 8.5286865234375 0.3482666015625 Q 8.597900390625 0.3779296875 8.6455078125 0.4302978515625 Q 8.693115234375 0.482666015625 8.71875 0.5533447265625 Q 8.744384765625 0.6240234375 8.74658203125 0.705322265625 Q 8.748779296875 0.7236328125 8.7491455078125 0.7415771484375 Q 8.74951171875 0.759521484375 8.748046875 0.778564453125 L 8.189208984375 0.778564453125 M 8.3642578125 0.501708984375 Q 8.3232421875 0.501708984375 8.2943115234375 0.5115966796875 Q 8.265380859375 0.521484375 8.24560546875 0.5386962890625 Q 8.225830078125 0.555908203125 8.214111328125 0.577880859375 Q 8.202392578125 0.599853515625 8.19580078125 0.6240234375 L 8.512939453125 0.6240234375 Q 8.5078125 0.59912109375 8.498291015625 0.5771484375 Q 8.48876953125 0.55517578125 8.471923828125 0.538330078125 Q 8.455078125 0.521484375 8.4290771484375 0.5115966796875 Q 8.403076171875 0.501708984375 8.3642578125 0.501708984375" fill="#004a80" fill-rule="nonzero"></path></g><g></g></g><defs><clipPath id="SvgjsClipPath85643"><path d=" M 0.5896386831000795 -3.5675795149690877 h 7.622968727549841 v 3.3175795149690877 h -7.622968727549841 Z"></path></clipPath><clipPath id="SvgjsClipPath856418e639d25-181a-4eef-98c4-99a71843fd20"><path d=" M 0.5896386831000795 -3.5675795149690877 L 8.21260741064992 -3.5675795149690877 L 8.21260741064992 -0.25 L 0.5896386831000795 -0.25 Z"></path></clipPath></defs></svg>